<svg width="28" height="28" viewBox="0 0 28 28" fill="none" xmlns="http://www.w3.org/2000/svg">
<path fill-rule="evenodd" clip-rule="evenodd" d="M5.74605 0.666656H22.254C25.0592 0.666656 27.3334 2.94077 27.3334 5.74602V22.254C27.3334 25.0592 25.0592 27.3333 22.254 27.3333H5.74605C2.9408 27.3333 0.666687 25.0592 0.666687 22.254V5.74602C0.666687 2.94077 2.9408 0.666656 5.74605 0.666656ZM20.9841 15.5873C21.5101 15.5873 21.9365 15.1609 21.9365 14.6349V10.7746C21.9297 10.2515 21.5073 9.82905 20.9841 9.82221H17.1746C16.6486 9.82221 16.2222 10.2486 16.2222 10.7746C16.2222 11.3006 16.6486 11.727 17.1746 11.727H18.3048L13.7841 16.2476L11.2445 13.7079C10.5705 13.0363 9.48031 13.0363 8.80637 13.7079L5.54288 16.9714C5.17151 17.3433 5.17151 17.9456 5.54288 18.3175C5.72051 18.4973 5.96311 18.598 6.21589 18.5968C6.46896 18.5995 6.71211 18.4985 6.88891 18.3175L10.0762 15.2698L12.6159 17.8095C13.2898 18.4811 14.38 18.4811 15.054 17.8095L20.0318 12.7936V14.6349C20.0318 15.1609 20.4582 15.5873 20.9841 15.5873Z" fill="#6344CF"/>
</svg>
