<svg width="32" height="32" viewBox="0 0 32 32" fill="none" xmlns="http://www.w3.org/2000/svg">
<path fill-rule="evenodd" clip-rule="evenodd" d="M12.1676 16.1974C12.1676 14.1382 13.7574 12.469 15.7185 12.469C17.6796 12.469 19.2693 14.1382 19.2693 16.1974C19.2693 18.2565 17.6796 19.9258 15.7185 19.9258C13.7574 19.9258 12.1676 18.2565 12.1676 16.1974ZM14.4834 16.1974C14.4834 16.9136 15.0363 17.4942 15.7185 17.4942C16.4006 17.4942 16.9535 16.9136 16.9535 16.1974C16.9535 15.4812 16.4006 14.9005 15.7185 14.9005C15.0363 14.9005 14.4834 15.4812 14.4834 16.1974Z" fill="url(#paint0_linear_398_356)"/>
<path fill-rule="evenodd" clip-rule="evenodd" d="M22.99 9.34033L29.4434 14.7546C29.8606 15.1054 30.1035 15.6362 30.1035 16.1974C30.1035 16.7586 29.8606 17.2894 29.4434 17.6401L22.99 23.0544C18.7367 26.6192 12.7002 26.6192 8.44688 23.0544L1.99354 17.6401C1.57626 17.2894 1.33337 16.7586 1.33337 16.1974C1.33337 15.6362 1.57626 15.1054 1.99354 14.7546L8.44688 9.34033C12.7002 5.77555 18.7367 5.77555 22.99 9.34033ZM9.88266 21.2389C13.2983 24.0933 18.1386 24.0933 21.5542 21.2389L27.4518 16.1974L21.5542 11.237C18.1386 8.38254 13.2983 8.38254 9.88266 11.237L3.98512 16.1974L9.88266 21.2389Z" fill="url(#paint1_linear_398_356)"/>
<defs>
<linearGradient id="paint0_linear_398_356" x1="30.1035" y1="16.1974" x2="1.33337" y2="16.1974" gradientUnits="userSpaceOnUse">
<stop stop-color="#3C78EB"/>
<stop offset="1" stop-color="#7658EB"/>
</linearGradient>
<linearGradient id="paint1_linear_398_356" x1="30.1035" y1="16.1974" x2="1.33337" y2="16.1974" gradientUnits="userSpaceOnUse">
<stop stop-color="#3C78EB"/>
<stop offset="1" stop-color="#7658EB"/>
</linearGradient>
</defs>
</svg>
