<svg width="32" height="32" viewBox="0 0 32 32" fill="none" xmlns="http://www.w3.org/2000/svg">
<path fill-rule="evenodd" clip-rule="evenodd" d="M6.77463 20.0284C7.69312 18.3635 9.44522 17.3307 11.3467 17.3333C13.5963 17.3666 15.5708 18.8393 16.244 20.9861C16.9172 23.1329 16.1373 25.4694 14.3095 26.7813C12.4818 28.0933 10.0186 28.0847 8.20003 26.76L6.2667 28.7733C6.07578 28.9654 5.81747 29.0754 5.5467 29.08C5.28753 29.0827 5.03798 28.9819 4.85337 28.8C4.46343 28.4096 4.46343 27.7771 4.85337 27.3867L6.7867 25.3333H6.93337C5.91697 23.7263 5.85614 21.6933 6.77463 20.0284ZM8.13337 22.5467C8.13337 24.3213 9.57202 25.76 11.3467 25.76V25.72C13.1059 25.7201 14.5381 24.3057 14.56 22.5467C14.56 20.772 13.1214 19.3333 11.3467 19.3333C9.57202 19.3333 8.13337 20.772 8.13337 22.5467Z" fill="url(#paint0_linear_398_357)"/>
<path fill-rule="evenodd" clip-rule="evenodd" d="M17.7999 3.17334L27.1332 12.5067C27.3556 12.6918 27.4869 12.9641 27.4932 13.2533V22.5867C27.4932 24.2664 26.826 25.8773 25.6383 27.065C24.4505 28.2527 22.8396 28.92 21.1599 28.92H17.3332C16.781 28.92 16.3332 28.4723 16.3332 27.92C16.3332 27.3677 16.781 26.92 17.3332 26.92H21.0932C23.4865 26.92 25.4266 24.9799 25.4266 22.5867V14.2533H19.7599C17.7379 14.246 16.1006 12.6087 16.0932 10.5867V4.92H13.0932C10.703 4.92733 8.76723 6.86314 8.75991 9.25334V15.92C8.75991 16.4723 8.31219 16.92 7.75991 16.92C7.20762 16.92 6.75991 16.4723 6.75991 15.92V9.25334C6.74926 7.56671 7.41181 5.94551 8.6007 4.74911C9.78959 3.55272 11.4066 2.87997 13.0932 2.88H17.0932C17.3584 2.88024 17.6126 2.98575 17.7999 3.17334ZM18.0932 6.29334V10.5867C18.0932 11.5071 18.8394 12.2533 19.7599 12.2533H23.9999L18.0932 6.29334Z" fill="url(#paint1_linear_398_357)"/>
<defs>
<linearGradient id="paint0_linear_398_357" x1="27.4932" y1="15.98" x2="4.56091" y2="15.98" gradientUnits="userSpaceOnUse">
<stop stop-color="#3C78EB"/>
<stop offset="1" stop-color="#7658EB"/>
</linearGradient>
<linearGradient id="paint1_linear_398_357" x1="27.4932" y1="15.98" x2="4.56091" y2="15.98" gradientUnits="userSpaceOnUse">
<stop stop-color="#3C78EB"/>
<stop offset="1" stop-color="#7658EB"/>
</linearGradient>
</defs>
</svg>
