<svg width="32" height="32" viewBox="0 0 32 32" fill="none" xmlns="http://www.w3.org/2000/svg">
<path d="M15.84 9.96025C14.7134 9.96025 13.8 10.8736 13.8 12.0002C13.8 13.1269 14.7134 14.0402 15.84 14.0402C16.9667 14.0402 17.88 13.1269 17.88 12.0002C17.8728 10.8766 16.9637 9.96752 15.84 9.96025Z" fill="url(#paint0_linear_398_375)"/>
<path d="M14.84 16.3336C14.8472 15.7843 15.2907 15.3408 15.84 15.3336C16.3893 15.3408 16.8328 15.7843 16.84 16.3336V18.6669C16.84 19.2192 16.3923 19.6669 15.84 19.6669C15.2877 19.6669 14.84 19.2192 14.84 18.6669V16.3336Z" fill="url(#paint1_linear_398_375)"/>
<path fill-rule="evenodd" clip-rule="evenodd" d="M23.5467 18.7602L26.3467 19.6936C27.1232 19.9617 27.6502 20.6856 27.6667 21.5069V26.8402C27.6667 28.2173 26.5504 29.3336 25.1734 29.3336C24.9055 29.3339 24.6395 29.2888 24.3867 29.2002L23.0534 28.7469C22.6721 29.1287 22.1528 29.3403 21.6134 29.3336H19.5867C18.6435 29.3871 17.8312 28.6756 17.76 27.7336V24.2536C17.6888 23.2601 16.8347 22.5068 15.84 22.5602C14.8454 22.5068 13.9913 23.2601 13.92 24.2536V27.7336C13.8489 28.6756 13.0365 29.3871 12.0934 29.3336H10.0667C9.52721 29.3403 9.00791 29.1287 8.62669 28.7469L7.29336 29.2002C7.04054 29.2888 6.77456 29.3339 6.50669 29.3336C5.14504 29.3412 4.02913 28.2549 4.00002 26.8936V21.5602C3.99591 20.7158 4.53318 19.9636 5.33336 19.6936L8.13336 18.7602V14.5202C8.2284 9.82061 10.6911 5.48704 14.68 3.00025C15.0265 2.77979 15.4293 2.66405 15.84 2.66691C16.251 2.66173 16.6545 2.77766 17 3.00025C20.9889 5.48704 23.4517 9.82061 23.5467 14.5202V18.7602ZM6.64002 27.3069L7.06669 27.1602L7.10669 21.2269L6.01335 21.5869V26.8402C6.01335 27.1127 6.23423 27.3336 6.50669 27.3336L6.64002 27.3069ZM21.4134 27.1602H19.84V24.2536C19.7472 22.1124 17.9832 20.4249 15.84 20.4269C13.6968 20.4249 11.9329 22.1124 11.84 24.2536V27.2002H10.2667V14.5202C10.3769 10.5506 12.4697 6.90057 15.84 4.80025C19.2193 6.90001 21.318 10.5566 21.4267 14.5336L21.4134 27.1602ZM25.2 27.2936C25.4725 27.2936 25.6934 27.0727 25.6934 26.8002V21.5602L24.6134 21.2002V27.1469L25.04 27.2936H25.2Z" fill="url(#paint2_linear_398_375)"/>
<defs>
<linearGradient id="paint0_linear_398_375" x1="27.6667" y1="16.0016" x2="4" y2="16.0016" gradientUnits="userSpaceOnUse">
<stop stop-color="#3C78EB"/>
<stop offset="1" stop-color="#7658EB"/>
</linearGradient>
<linearGradient id="paint1_linear_398_375" x1="27.6667" y1="16.0016" x2="4" y2="16.0016" gradientUnits="userSpaceOnUse">
<stop stop-color="#3C78EB"/>
<stop offset="1" stop-color="#7658EB"/>
</linearGradient>
<linearGradient id="paint2_linear_398_375" x1="27.6667" y1="16.0016" x2="4" y2="16.0016" gradientUnits="userSpaceOnUse">
<stop stop-color="#3C78EB"/>
<stop offset="1" stop-color="#7658EB"/>
</linearGradient>
</defs>
</svg>
