<svg width="1558" height="2513" viewBox="0 0 1558 2513" fill="none" xmlns="http://www.w3.org/2000/svg">
<rect x="166" y="187" width="1237" height="2135" fill="white"/>
<rect x="171" y="192" width="1227" height="2125" stroke="black" stroke-opacity="0.2" stroke-width="10"/>
<path d="M759.034 2480H746.477L782.795 2381.09H795.159L831.477 2480H818.92L789.364 2396.74H788.591L759.034 2480ZM763.67 2441.36H814.284V2451.99H763.67V2441.36Z" fill="black"/>
<path d="M811.568 64H799.591C798.883 60.5549 797.643 57.5284 795.872 54.9205C794.134 52.3125 792.009 50.1231 789.497 48.3523C787.018 46.5492 784.265 45.197 781.239 44.2955C778.212 43.3939 775.057 42.9432 771.773 42.9432C765.784 42.9432 760.359 44.4564 755.497 47.483C750.668 50.5095 746.82 54.9688 743.955 60.8608C741.121 66.7528 739.705 73.9811 739.705 82.5455C739.705 91.1098 741.121 98.3381 743.955 104.23C746.82 110.122 750.668 114.581 755.497 117.608C760.359 120.634 765.784 122.148 771.773 122.148C775.057 122.148 778.212 121.697 781.239 120.795C784.265 119.894 787.018 118.558 789.497 116.787C792.009 114.984 794.134 112.778 795.872 110.17C797.643 107.53 798.883 104.504 799.591 101.091H811.568C810.667 106.146 809.025 110.67 806.642 114.662C804.259 118.654 801.297 122.051 797.756 124.852C794.214 127.621 790.238 129.73 785.827 131.179C781.448 132.628 776.763 133.352 771.773 133.352C763.337 133.352 755.835 131.292 749.267 127.17C742.699 123.049 737.531 117.189 733.764 109.591C729.997 101.992 728.114 92.9773 728.114 82.5455C728.114 72.1136 729.997 63.0985 733.764 55.5C737.531 47.9015 742.699 42.0417 749.267 37.9205C755.835 33.7992 763.337 31.7386 771.773 31.7386C776.763 31.7386 781.448 32.4631 785.827 33.9119C790.238 35.3608 794.214 37.4858 797.756 40.2869C801.297 43.0559 804.259 46.4365 806.642 50.429C809.025 54.3892 810.667 58.9129 811.568 64Z" fill="black"/>
<path d="M25.9773 2021V1922.09H37.9545V1971.16H39.1136L83.5455 1922.09H99.1932L57.6591 1966.72L99.1932 2021H84.7045L50.3182 1975.02L37.9545 1988.93V2021H25.9773Z" fill="black"/>
<path d="M1471.98 2037V1938.09H1531.28V1948.72H1483.95V1982.14H1526.84V1992.76H1483.95V2037H1471.98Z" fill="black"/>
<path d="M21.9773 1284V1185.09H81.6705V1195.72H33.9545V1229.14H78.5795V1239.76H33.9545V1273.38H82.4432V1284H21.9773Z" fill="black"/>
<path d="M1472.98 1300V1201.09H1507.56C1514.45 1201.09 1520.13 1202.28 1524.61 1204.66C1529.08 1207.02 1532.41 1210.19 1534.6 1214.18C1536.79 1218.14 1537.89 1222.53 1537.89 1227.36C1537.89 1231.61 1537.13 1235.12 1535.62 1237.89C1534.14 1240.66 1532.17 1242.85 1529.72 1244.46C1527.31 1246.07 1524.69 1247.26 1521.85 1248.03V1249C1524.88 1249.19 1527.92 1250.26 1530.98 1252.19C1534.04 1254.12 1536.6 1256.89 1538.66 1260.49C1540.72 1264.1 1541.75 1268.51 1541.75 1273.73C1541.75 1278.69 1540.62 1283.14 1538.37 1287.11C1536.12 1291.07 1532.56 1294.2 1527.7 1296.52C1522.83 1298.84 1516.51 1300 1508.72 1300H1472.98ZM1484.95 1289.38H1508.72C1516.54 1289.38 1522.09 1287.86 1525.38 1284.84C1528.69 1281.78 1530.35 1278.07 1530.35 1273.73C1530.35 1270.38 1529.5 1267.29 1527.79 1264.45C1526.09 1261.59 1523.66 1259.3 1520.5 1257.6C1517.34 1255.86 1513.61 1254.99 1509.3 1254.99H1484.95V1289.38ZM1484.95 1244.56H1507.17C1510.78 1244.56 1514.03 1243.85 1516.93 1242.43C1519.86 1241.02 1522.17 1239.02 1523.88 1236.44C1525.62 1233.87 1526.49 1230.84 1526.49 1227.36C1526.49 1223.02 1524.98 1219.33 1521.95 1216.3C1518.92 1213.25 1514.13 1211.72 1507.56 1211.72H1484.95V1244.56Z" fill="black"/>
<path d="M11.9773 547V448.091H23.9545V492.136H76.6932V448.091H88.6705V547H76.6932V502.761H23.9545V547H11.9773Z" fill="black"/>
<path d="M1448.98 464.091H1463.27L1496.89 546.193H1498.05L1531.66 464.091H1545.95V563H1534.75V487.852H1533.78L1502.88 563H1492.06L1461.15 487.852H1460.18V563H1448.98V464.091Z" fill="black"/>
<line x1="785" y1="288" x2="785" y2="2214" stroke="black" stroke-opacity="0.2" stroke-width="10" stroke-dasharray="20 20"/>
<line x1="1087" y1="288" x2="1087" y2="2214" stroke="black" stroke-opacity="0.2" stroke-width="10" stroke-dasharray="20 20"/>
<line x1="482" y1="288" x2="482" y2="2214" stroke="black" stroke-opacity="0.2" stroke-width="10" stroke-dasharray="20 20"/>
<circle cx="779.5" cy="1724.5" r="562.5" stroke="#FFD766" stroke-width="20"/>
<circle cx="788.5" cy="783.5" r="562.5" stroke="#FFD766" stroke-width="20"/>
</svg>
