<svg width="1544" height="4001" viewBox="0 0 1544 4001" fill="none" xmlns="http://www.w3.org/2000/svg">
<rect x="155" y="170" width="1237" height="3663" fill="white"/>
<rect x="160" y="175" width="1227" height="3653" stroke="black" stroke-opacity="0.2" stroke-width="10"/>
<path d="M744.034 3968H731.477L767.795 3869.09H780.159L816.477 3968H803.92L774.364 3884.74H773.591L744.034 3968ZM748.67 3929.36H799.284V3939.99H748.67V3929.36Z" fill="black"/>
<path d="M806.568 64H794.591C793.883 60.5549 792.643 57.5284 790.872 54.9205C789.134 52.3125 787.009 50.1231 784.497 48.3523C782.018 46.5492 779.265 45.197 776.239 44.2955C773.212 43.3939 770.057 42.9432 766.773 42.9432C760.784 42.9432 755.359 44.4564 750.497 47.483C745.668 50.5095 741.82 54.9688 738.955 60.8608C736.121 66.7528 734.705 73.9811 734.705 82.5455C734.705 91.1098 736.121 98.3381 738.955 104.23C741.82 110.122 745.668 114.581 750.497 117.608C755.359 120.634 760.784 122.148 766.773 122.148C770.057 122.148 773.212 121.697 776.239 120.795C779.265 119.894 782.018 118.558 784.497 116.787C787.009 114.984 789.134 112.778 790.872 110.17C792.643 107.53 793.883 104.504 794.591 101.091H806.568C805.667 106.146 804.025 110.67 801.642 114.662C799.259 118.654 796.297 122.051 792.756 124.852C789.214 127.621 785.238 129.73 780.827 131.179C776.448 132.628 771.763 133.352 766.773 133.352C758.337 133.352 750.835 131.292 744.267 127.17C737.699 123.049 732.531 117.189 728.764 109.591C724.997 101.992 723.114 92.9773 723.114 82.5455C723.114 72.1136 724.997 63.0985 728.764 55.5C732.531 47.9015 737.699 42.0417 744.267 37.9205C750.835 33.7992 758.337 31.7386 766.773 31.7386C771.763 31.7386 776.448 32.4631 780.827 33.9119C785.238 35.3608 789.214 37.4858 792.756 40.2869C796.297 43.0559 799.259 46.4365 801.642 50.429C804.025 54.3892 805.667 58.9129 806.568 64Z" fill="black"/>
<path d="M20.9773 3478V3379.09H32.9545V3428.16H34.1136L78.5455 3379.09H94.1932L52.6591 3423.72L94.1932 3478H79.7045L45.3182 3432.02L32.9545 3445.93V3478H20.9773Z" fill="black"/>
<path d="M1463.98 3494V3395.09H1523.28V3405.72H1475.95V3439.14H1518.84V3449.76H1475.95V3494H1463.98Z" fill="black"/>
<path d="M22.0341 2642.09L51.3977 2725.35H52.5568L81.9205 2642.09H94.4773L58.1591 2741H45.7955L9.47727 2642.09H22.0341Z" fill="black"/>
<path d="M1458.98 2757V2658.09H1492.4C1500.16 2658.09 1506.5 2659.49 1511.43 2662.29C1516.38 2665.06 1520.05 2668.81 1522.44 2673.55C1524.82 2678.28 1526.01 2683.56 1526.01 2689.39C1526.01 2695.21 1524.82 2700.51 1522.44 2705.28C1520.09 2710.04 1516.45 2713.84 1511.52 2716.67C1506.6 2719.47 1500.29 2720.88 1492.59 2720.88H1468.64V2710.25H1492.2C1497.52 2710.25 1501.78 2709.33 1505 2707.5C1508.22 2705.66 1510.56 2703.18 1512.01 2700.06C1513.49 2696.9 1514.23 2693.35 1514.23 2689.39C1514.23 2685.43 1513.49 2681.88 1512.01 2678.76C1510.56 2675.64 1508.21 2673.19 1504.95 2671.42C1501.7 2669.62 1497.39 2668.72 1492.01 2668.72H1470.95V2757H1458.98Z" fill="black"/>
<path d="M25.9773 2004V1905.09H85.6705V1915.72H37.9545V1949.14H82.5795V1959.76H37.9545V1993.38H86.4432V2004H25.9773Z" fill="black"/>
<path d="M1457.98 2020V1921.09H1492.56C1499.45 1921.09 1505.13 1922.28 1509.61 1924.66C1514.08 1927.02 1517.41 1930.19 1519.6 1934.18C1521.79 1938.14 1522.89 1942.53 1522.89 1947.36C1522.89 1951.61 1522.13 1955.12 1520.62 1957.89C1519.14 1960.66 1517.17 1962.85 1514.72 1964.46C1512.31 1966.07 1509.69 1967.26 1506.85 1968.03V1969C1509.88 1969.19 1512.92 1970.26 1515.98 1972.19C1519.04 1974.12 1521.6 1976.89 1523.66 1980.49C1525.72 1984.1 1526.75 1988.51 1526.75 1993.73C1526.75 1998.69 1525.62 2003.14 1523.37 2007.11C1521.12 2011.07 1517.56 2014.2 1512.7 2016.52C1507.83 2018.84 1501.51 2020 1493.72 2020H1457.98ZM1469.95 2009.38H1493.72C1501.54 2009.38 1507.09 2007.86 1510.38 2004.84C1513.69 2001.78 1515.35 1998.07 1515.35 1993.73C1515.35 1990.38 1514.5 1987.29 1512.79 1984.45C1511.09 1981.59 1508.66 1979.3 1505.5 1977.6C1502.34 1975.86 1498.61 1974.99 1494.3 1974.99H1469.95V2009.38ZM1469.95 1964.56H1492.17C1495.78 1964.56 1499.03 1963.85 1501.93 1962.43C1504.86 1961.02 1507.17 1959.02 1508.88 1956.44C1510.62 1953.87 1511.49 1950.84 1511.49 1947.36C1511.49 1943.02 1509.98 1939.33 1506.95 1936.3C1503.92 1933.25 1499.13 1931.72 1492.56 1931.72H1469.95V1964.56Z" fill="black"/>
<path d="M76.0682 1192.82C75.4886 1187.92 73.1383 1184.12 69.017 1181.42C64.8958 1178.72 59.8409 1177.36 53.8523 1177.36C49.4735 1177.36 45.642 1178.07 42.358 1179.49C39.1061 1180.91 36.5625 1182.85 34.7273 1185.33C32.9242 1187.81 32.0227 1190.63 32.0227 1193.78C32.0227 1196.42 32.6506 1198.69 33.9062 1200.59C35.1941 1202.46 36.8362 1204.02 38.8324 1205.28C40.8286 1206.5 42.9214 1207.52 45.1108 1208.32C47.3002 1209.09 49.3125 1209.72 51.1477 1210.2L61.1932 1212.91C63.7689 1213.59 66.6345 1214.52 69.7898 1215.71C72.9773 1216.9 76.0199 1218.53 78.9176 1220.59C81.8475 1222.62 84.2623 1225.22 86.1619 1228.41C88.0616 1231.6 89.0114 1235.51 89.0114 1240.15C89.0114 1245.49 87.6108 1250.32 84.8097 1254.64C82.0407 1258.95 77.9839 1262.38 72.6392 1264.92C67.3267 1267.47 60.8712 1268.74 53.2727 1268.74C46.1894 1268.74 40.0559 1267.6 34.8722 1265.31C29.7206 1263.02 25.6638 1259.84 22.7017 1255.75C19.7718 1251.66 18.1136 1246.91 17.7273 1241.5H30.0909C30.4129 1245.23 31.6686 1248.33 33.858 1250.77C36.0795 1253.19 38.8807 1254.99 42.2614 1256.18C45.6742 1257.34 49.3447 1257.92 53.2727 1257.92C57.8447 1257.92 61.9498 1257.18 65.5881 1255.7C69.2263 1254.19 72.108 1252.09 74.233 1249.42C76.358 1246.72 77.4205 1243.56 77.4205 1239.95C77.4205 1236.67 76.5028 1234 74.6676 1231.94C72.8324 1229.88 70.4176 1228.2 67.4233 1226.91C64.429 1225.63 61.1932 1224.5 57.7159 1223.53L45.5455 1220.06C37.8182 1217.84 31.7008 1214.66 27.1932 1210.54C22.6856 1206.42 20.4318 1201.03 20.4318 1194.36C20.4318 1188.83 21.929 1184 24.9233 1179.88C27.9498 1175.72 32.0066 1172.5 37.0938 1170.22C42.2131 1167.9 47.928 1166.74 54.2386 1166.74C60.6136 1166.74 66.2803 1167.88 71.2386 1170.17C76.197 1172.42 80.125 1175.51 83.0227 1179.44C85.9527 1183.37 87.4981 1187.83 87.6591 1192.82H76.0682Z" fill="black"/>
<path d="M1458.98 1283V1184.09H1492.4C1500.13 1184.09 1506.47 1185.41 1511.43 1188.05C1516.38 1190.66 1520.05 1194.25 1522.44 1198.82C1524.82 1203.39 1526.01 1208.59 1526.01 1214.42C1526.01 1220.25 1524.82 1225.42 1522.44 1229.92C1520.05 1234.43 1516.4 1237.97 1511.47 1240.55C1506.55 1243.09 1500.25 1244.36 1492.59 1244.36H1465.55V1233.55H1492.2C1497.48 1233.55 1501.73 1232.77 1504.95 1231.23C1508.21 1229.68 1510.56 1227.49 1512.01 1224.66C1513.49 1221.79 1514.23 1218.38 1514.23 1214.42C1514.23 1210.46 1513.49 1207 1512.01 1204.04C1510.52 1201.07 1508.16 1198.79 1504.91 1197.18C1501.65 1195.54 1497.36 1194.72 1492.01 1194.72H1470.95V1283H1458.98ZM1505.53 1238.57L1529.88 1283H1515.97L1492.01 1238.57H1505.53Z" fill="black"/>
<path d="M11.9773 530V431.091H23.9545V475.136H76.6932V431.091H88.6705V530H76.6932V485.761H23.9545V530H11.9773Z" fill="black"/>
<path d="M1434.98 447.091H1449.27L1482.89 529.193H1484.05L1517.66 447.091H1531.95V546H1520.75V470.852H1519.78L1488.88 546H1478.06L1447.15 470.852H1446.18V546H1434.98V447.091Z" fill="black"/>
<line x1="770" y1="266" x2="770" y2="3715" stroke="black" stroke-opacity="0.2" stroke-width="10" stroke-dasharray="20 20"/>
<line x1="465" y1="266" x2="465" y2="3715" stroke="black" stroke-opacity="0.2" stroke-width="10" stroke-dasharray="20 20"/>
<line x1="1080" y1="266" x2="1080" y2="3715" stroke="black" stroke-opacity="0.2" stroke-width="10" stroke-dasharray="20 20"/>
<path d="M460.5 3396L403.775 3204.75L517.225 3204.75L460.5 3396Z" fill="#31C447"/>
<path d="M460.5 454.5C460.5 473.167 460.5 600.6 460.5 961C460.5 1411.5 1335.5 1454.5 1335.5 1965C1335.5 2604 465 2664.5 465 3123.5C465 3490.7 465 3522.5 465 3492.5" stroke="#31C447" stroke-width="20"/>
</svg>
