<svg width="1677" height="4119" viewBox="0 0 1677 4119" fill="none" xmlns="http://www.w3.org/2000/svg">
<rect x="196" y="228" width="1237" height="3663" fill="#201100" fill-opacity="0.26"/>
<rect x="201" y="233" width="1227" height="3653" stroke="black" stroke-opacity="0.2" stroke-width="10"/>
<path d="M810.008 3840.5C651.004 3840.5 267 3854.5 267 3629.5C267 3493.5 271 1631.5 270.508 552" stroke="#FFD766" stroke-width="20"/>
<path d="M363 3425.5C363 3689.5 333.322 3779 814.498 3779C1268 3779 1359 3785.5 1359 3570.5C1359 3398.5 1359 2485.17 1359 2050" stroke="#FFD766" stroke-width="20"/>
<path d="M269.5 1763L326.225 1954.25H212.775L269.5 1763Z" fill="#FFD766"/>
<path d="M1358.5 3149L1415.22 3340.25H1301.78L1358.5 3149Z" fill="#FFD766"/>
<path d="M768.165 4073H750.807L801.011 3936.27H818.102L868.307 4073H850.949L810.091 3957.9H809.023L768.165 4073ZM774.574 4019.59H844.54V4034.28H774.574V4019.59Z" fill="black"/>
<path d="M867.58 88H851.023C850.044 83.2377 848.33 79.054 845.882 75.4489C843.479 71.8438 840.541 68.8172 837.07 66.3693C833.643 63.8769 829.837 62.0076 825.653 60.7614C821.47 59.5151 817.108 58.892 812.568 58.892C804.29 58.892 796.79 60.9839 790.07 65.1676C783.393 69.3513 778.075 75.5156 774.114 83.6605C770.197 91.8054 768.239 101.797 768.239 113.636C768.239 125.475 770.197 135.467 774.114 143.612C778.075 151.757 783.393 157.921 790.07 162.105C796.79 166.289 804.29 168.381 812.568 168.381C817.108 168.381 821.47 167.758 825.653 166.511C829.837 165.265 833.643 163.418 837.07 160.97C840.541 158.478 843.479 155.429 845.882 151.824C848.33 148.174 850.044 143.991 851.023 139.273H867.58C866.333 146.26 864.063 152.514 860.77 158.033C857.476 163.552 853.382 168.247 848.486 172.119C843.59 175.947 838.093 178.862 831.996 180.865C825.943 182.868 819.467 183.869 812.568 183.869C800.907 183.869 790.537 181.021 781.457 175.324C772.378 169.627 765.234 161.527 760.027 151.023C754.82 140.519 752.216 128.057 752.216 113.636C752.216 99.2159 754.82 86.7538 760.027 76.25C765.234 65.7462 772.378 57.6458 781.457 51.9489C790.537 46.2519 800.907 43.4034 812.568 43.4034C819.467 43.4034 825.943 44.4048 831.996 46.4077C838.093 48.4105 843.59 51.348 848.486 55.2202C853.382 59.0478 857.476 63.7211 860.77 69.2401C864.063 74.7145 866.333 80.9678 867.58 88Z" fill="black"/>
<path d="M25.5568 3586V3449.27H42.1136V3517.1H43.7159L105.136 3449.27H126.767L69.3523 3510.96L126.767 3586H106.739L59.2045 3522.44L42.1136 3541.67V3586H25.5568Z" fill="black"/>
<path d="M1554.56 3602V3465.27H1636.54V3479.96H1571.11V3526.16H1630.4V3540.85H1571.11V3602H1554.56Z" fill="black"/>
<path d="M800.75 3602H758.557V3465.27H802.619C815.883 3465.27 827.232 3468.01 836.668 3473.48C846.103 3478.91 853.336 3486.73 858.365 3496.92C863.394 3507.07 865.909 3519.22 865.909 3533.37C865.909 3547.61 863.372 3559.87 858.298 3570.15C853.224 3580.39 845.836 3588.27 836.134 3593.79C826.431 3599.26 814.636 3602 800.75 3602ZM775.114 3587.31H799.682C810.987 3587.31 820.356 3585.13 827.788 3580.77C835.221 3576.41 840.762 3570.2 844.412 3562.14C848.062 3554.09 849.886 3544.5 849.886 3533.37C849.886 3522.33 848.084 3512.83 844.479 3504.86C840.874 3496.85 835.488 3490.71 828.322 3486.44C821.157 3482.12 812.233 3479.96 801.551 3479.96H775.114V3587.31Z" fill="black"/>
<path d="M28.1648 2712.27L68.7557 2827.37H70.358L110.949 2712.27H128.307L78.1023 2849H61.0114L10.8068 2712.27H28.1648Z" fill="black"/>
<path d="M1549.56 2865V2728.27H1595.76C1606.48 2728.27 1615.25 2730.21 1622.06 2734.08C1628.91 2737.91 1633.99 2743.09 1637.28 2749.64C1640.57 2756.18 1642.22 2763.48 1642.22 2771.53C1642.22 2779.59 1640.57 2786.91 1637.28 2793.5C1634.03 2800.09 1629 2805.34 1622.19 2809.25C1615.38 2813.13 1606.66 2815.06 1596.02 2815.06H1562.91V2800.38H1595.49C1602.83 2800.38 1608.73 2799.11 1613.18 2796.57C1617.63 2794.03 1620.86 2790.61 1622.86 2786.29C1624.91 2781.93 1625.93 2777.01 1625.93 2771.53C1625.93 2766.06 1624.91 2761.16 1622.86 2756.85C1620.86 2752.53 1617.61 2749.15 1613.11 2746.7C1608.62 2744.21 1602.65 2742.96 1595.22 2742.96H1566.11V2865H1549.56Z" fill="black"/>
<path d="M773.557 2865V2728.27H790.114V2850.31H853.67V2865H773.557Z" fill="black"/>
<path d="M30.5568 2112V1975.27H113.074V1989.96H47.1136V2036.16H108.801V2050.85H47.1136V2097.31H114.142V2112H30.5568Z" fill="black"/>
<path d="M1548.56 2128V1991.27H1596.36C1605.88 1991.27 1613.74 1992.92 1619.92 1996.21C1626.11 1999.46 1630.72 2003.85 1633.74 2009.37C1636.77 2014.84 1638.28 2020.91 1638.28 2027.59C1638.28 2033.47 1637.24 2038.32 1635.15 2042.14C1633.1 2045.97 1630.38 2049 1627 2051.22C1623.66 2053.45 1620.04 2055.1 1616.12 2056.16V2057.5C1620.3 2057.77 1624.51 2059.24 1628.74 2061.91C1632.97 2064.58 1636.5 2068.4 1639.35 2073.39C1642.2 2078.37 1643.62 2084.47 1643.62 2091.68C1643.62 2098.54 1642.07 2104.7 1638.95 2110.17C1635.84 2115.65 1630.92 2119.99 1624.2 2123.19C1617.48 2126.4 1608.73 2128 1597.96 2128H1548.56ZM1565.11 2113.31H1597.96C1608.78 2113.31 1616.45 2111.22 1620.99 2107.04C1625.58 2102.81 1627.87 2097.69 1627.87 2091.68C1627.87 2087.05 1626.69 2082.78 1624.33 2078.86C1621.97 2074.9 1618.61 2071.74 1614.25 2069.38C1609.89 2066.98 1604.73 2065.78 1598.76 2065.78H1565.11V2113.31ZM1565.11 2051.36H1595.82C1600.81 2051.36 1605.3 2050.38 1609.31 2048.42C1613.36 2046.46 1616.56 2043.7 1618.92 2040.14C1621.33 2036.58 1622.53 2032.4 1622.53 2027.59C1622.53 2021.58 1620.44 2016.49 1616.25 2012.3C1612.07 2008.07 1605.44 2005.96 1596.36 2005.96H1565.11V2051.36Z" fill="black"/>
<path d="M773.568 1991.27L808.818 2048.15H809.886L845.136 1991.27H864.631L821.636 2059.64L864.631 2128H845.136L809.886 2072.19H808.818L773.568 2128H754.074L798.136 2059.64L754.074 1991.27H773.568Z" fill="black"/>
<path d="M101.33 1272.45C100.528 1265.69 97.2794 1260.44 91.5824 1256.7C85.8854 1252.96 78.8977 1251.09 70.6193 1251.09C64.5663 1251.09 59.2699 1252.07 54.7301 1254.03C50.2349 1255.99 46.7188 1258.68 44.1818 1262.11C41.6894 1265.53 40.4432 1269.43 40.4432 1273.79C40.4432 1277.44 41.3111 1280.58 43.0469 1283.2C44.8272 1285.78 47.0971 1287.94 49.8565 1289.68C52.616 1291.37 55.509 1292.77 58.5355 1293.88C61.562 1294.95 64.3438 1295.82 66.8807 1296.49L80.767 1300.23C84.3277 1301.16 88.2888 1302.45 92.6506 1304.1C97.0568 1305.75 101.263 1307.99 105.268 1310.84C109.319 1313.65 112.657 1317.25 115.283 1321.66C117.909 1326.06 119.222 1331.47 119.222 1337.88C119.222 1345.27 117.286 1351.95 113.413 1357.91C109.586 1363.87 103.978 1368.61 96.5895 1372.13C89.2457 1375.65 80.322 1377.4 69.8182 1377.4C60.0265 1377.4 51.5478 1375.82 44.3821 1372.66C37.2609 1369.5 31.6529 1365.1 27.5582 1359.44C23.508 1353.79 21.2159 1347.23 20.6818 1339.75H37.7727C38.2178 1344.91 39.9536 1349.19 42.9801 1352.57C46.0511 1355.91 49.9233 1358.4 54.5966 1360.05C59.3144 1361.65 64.3883 1362.45 69.8182 1362.45C76.1383 1362.45 81.813 1361.43 86.8423 1359.38C91.8717 1357.29 95.8551 1354.39 98.7926 1350.7C101.73 1346.96 103.199 1342.6 103.199 1337.61C103.199 1333.07 101.93 1329.38 99.3935 1326.53C96.8565 1323.68 93.5185 1321.37 89.3793 1319.59C85.2401 1317.81 80.767 1316.25 75.9602 1314.91L59.1364 1310.11C48.4545 1307.04 39.9981 1302.65 33.767 1296.96C27.536 1291.26 24.4205 1283.8 24.4205 1274.59C24.4205 1266.94 26.4901 1260.26 30.6293 1254.56C34.813 1248.82 40.4209 1244.37 47.4531 1241.21C54.5298 1238.01 62.4299 1236.4 71.1534 1236.4C79.9659 1236.4 87.7992 1237.98 94.6534 1241.14C101.508 1244.26 106.938 1248.53 110.943 1253.96C114.993 1259.39 117.13 1265.56 117.352 1272.45H101.33Z" fill="black"/>
<path d="M1549.56 1391V1254.27H1595.76C1606.44 1254.27 1615.21 1256.1 1622.06 1259.75C1628.91 1263.35 1633.99 1268.31 1637.28 1274.63C1640.57 1280.96 1642.22 1288.14 1642.22 1296.2C1642.22 1304.25 1640.57 1311.4 1637.28 1317.63C1633.99 1323.86 1628.94 1328.76 1622.13 1332.32C1615.32 1335.83 1606.62 1337.59 1596.02 1337.59H1558.64V1322.64H1595.49C1602.79 1322.64 1608.66 1321.57 1613.11 1319.43C1617.61 1317.3 1620.86 1314.27 1622.86 1310.35C1624.91 1306.39 1625.93 1301.67 1625.93 1296.2C1625.93 1290.72 1624.91 1285.94 1622.86 1281.85C1620.81 1277.75 1617.54 1274.59 1613.05 1272.37C1608.55 1270.1 1602.61 1268.96 1595.22 1268.96H1566.11V1391H1549.56ZM1613.91 1329.58L1647.56 1391H1628.34L1595.22 1329.58H1613.91Z" fill="black"/>
<path d="M818.114 1254.27V1391H801.557V1254.27H818.114Z" fill="black"/>
<path d="M16.5568 638V501.273H33.1136V562.159H106.017V501.273H122.574V638H106.017V576.847H33.1136V638H16.5568Z" fill="black"/>
<path d="M1525.56 517.273H1545.32L1591.78 630.767H1593.39L1639.85 517.273H1659.61V654H1644.12V550.119H1642.79L1600.06 654H1585.11L1542.38 550.119H1541.05V654H1525.56V517.273Z" fill="black"/>
<path d="M850.023 560C848.554 555.505 846.618 551.477 844.214 547.916C841.856 544.311 839.029 541.24 835.736 538.703C832.487 536.166 828.793 534.23 824.653 532.895C820.514 531.56 815.974 530.892 811.034 530.892C802.934 530.892 795.568 532.984 788.936 537.168C782.304 541.351 777.03 547.516 773.114 555.661C769.197 563.805 767.239 573.797 767.239 585.636C767.239 597.475 769.219 607.467 773.18 615.612C777.142 623.757 782.505 629.921 789.27 634.105C796.035 638.289 803.646 640.381 812.102 640.381C819.936 640.381 826.834 638.712 832.798 635.374C838.807 631.991 843.48 627.229 846.818 621.087C850.201 614.9 851.892 607.623 851.892 599.256L856.966 600.324H815.841V585.636H867.915V600.324C867.915 611.584 865.511 621.376 860.705 629.699C855.942 638.022 849.355 644.475 840.943 649.06C832.576 653.599 822.962 655.869 812.102 655.869C799.996 655.869 789.359 653.021 780.19 647.324C771.066 641.627 763.945 633.527 758.827 623.023C753.753 612.519 751.216 600.057 751.216 585.636C751.216 574.821 752.662 565.096 755.555 556.462C758.493 547.783 762.632 540.394 767.973 534.297C773.314 528.199 779.634 523.526 786.933 520.277C794.232 517.028 802.266 515.403 811.034 515.403C818.244 515.403 824.965 516.494 831.196 518.675C837.472 520.811 843.057 523.86 847.953 527.821C852.893 531.738 857.01 536.433 860.304 541.908C863.598 547.338 865.867 553.368 867.114 560H850.023Z" fill="black"/>
</svg>
