<?xml version="1.0" encoding="utf-8"?>
<svg xmlns="http://www.w3.org/2000/svg" viewBox="-247.757 -1782.247 1626.893 3984.574" xmlns:bx="https://boxy-svg.com" width="1626.893px" height="3984.574px"><defs><bx:export><bx:file format="svg"/></bx:export></defs><rect x="-38.423" y="-1605.5" width="1237" height="3663" fill="white" style="stroke-width: 1;"/><path d="M 537.488 2192.51 L 524.931 2192.51 L 561.249 2093.6 L 573.613 2093.6 L 609.931 2192.51 L 597.374 2192.51 L 567.818 2109.25 L 567.045 2109.25 L 537.488 2192.51 Z M 542.124 2153.87 L 592.738 2153.87 L 592.738 2164.5 L 542.124 2164.5 L 542.124 2153.87 Z" fill="black" style="stroke-width: 1;"/><path d="M 600.022 -1711.5 L 588.045 -1711.5 C 587.337 -1714.9 586.097 -1718 584.326 -1720.6 C 582.588 -1723.2 580.463 -1725.4 577.951 -1727.1 C 575.472 -1728.9 572.719 -1730.3 569.693 -1731.2 C 566.666 -1732.1 563.511 -1732.6 560.227 -1732.6 C 554.238 -1732.6 548.813 -1731 543.951 -1728 C 539.122 -1725 535.274 -1720.5 532.409 -1714.6 C 529.575 -1708.7 528.159 -1701.5 528.159 -1692.9 C 528.159 -1684.4 529.575 -1677.2 532.409 -1671.3 C 535.274 -1665.4 539.122 -1660.9 543.951 -1657.9 C 548.813 -1654.9 554.238 -1653.3 560.227 -1653.3 C 563.511 -1653.3 566.666 -1653.8 569.693 -1654.7 C 572.719 -1655.6 575.472 -1656.9 577.951 -1658.7 C 580.463 -1660.5 582.588 -1662.7 584.326 -1665.3 C 586.097 -1668 587.337 -1671 588.045 -1674.4 L 600.022 -1674.4 C 599.121 -1669.3 597.479 -1664.8 595.096 -1660.8 C 592.713 -1656.8 589.751 -1653.4 586.21 -1650.6 C 582.668 -1647.9 578.692 -1645.8 574.281 -1644.3 C 569.902 -1642.9 565.217 -1642.1 560.227 -1642.1 C 551.791 -1642.1 544.289 -1644.2 537.721 -1648.3 C 531.153 -1652.4 525.985 -1658.3 522.218 -1665.9 C 518.451 -1673.5 516.568 -1682.5 516.568 -1692.9 C 516.568 -1703.4 518.451 -1712.4 522.218 -1720 C 525.985 -1727.6 531.153 -1733.5 537.721 -1737.6 C 544.289 -1741.7 551.791 -1743.8 560.227 -1743.8 C 565.217 -1743.8 569.902 -1743 574.281 -1741.6 C 578.692 -1740.1 582.668 -1738 586.21 -1735.2 C 589.751 -1732.4 592.713 -1729.1 595.096 -1725.1 C 597.479 -1721.1 599.121 -1716.6 600.022 -1711.5 Z" fill="black" style="stroke-width: 1;"/><path d="M -185.57 1702.51 L -185.57 1603.6 L -173.59 1603.6 L -173.59 1652.67 L -172.43 1652.67 L -128 1603.6 L -112.35 1603.6 L -153.89 1648.23 L -112.35 1702.51 L -126.84 1702.51 L -161.23 1656.53 L -173.59 1670.44 L -173.59 1702.51 L -185.57 1702.51 Z" fill="black" style="stroke-width: 1;"/><path d="M 1257.43 1718.51 L 1257.43 1619.6 L 1316.73 1619.6 L 1316.73 1630.23 L 1269.4 1630.23 L 1269.4 1663.65 L 1312.29 1663.65 L 1312.29 1674.27 L 1269.4 1674.27 L 1269.4 1718.51 L 1257.43 1718.51 Z" fill="black" style="stroke-width: 1;"/><path d="M -184.51 866.596 L -155.15 949.856 L -153.99 949.856 L -124.63 866.596 L -112.07 866.596 L -148.39 965.506 L -160.75 965.506 L -197.07 866.596 L -184.51 866.596 Z" fill="black" style="stroke-width: 1;"/><path d="M 1252.43 981.506 L 1252.43 882.596 L 1285.85 882.596 C 1293.61 882.596 1299.95 883.996 1304.88 886.796 C 1309.83 889.566 1313.5 893.316 1315.89 898.056 C 1318.27 902.786 1319.46 908.066 1319.46 913.896 C 1319.46 919.716 1318.27 925.016 1315.89 929.786 C 1313.54 934.546 1309.9 938.346 1304.97 941.176 C 1300.05 943.976 1293.74 945.386 1286.04 945.386 L 1262.09 945.386 L 1262.09 934.756 L 1285.65 934.756 C 1290.97 934.756 1295.23 933.836 1298.45 932.006 C 1301.67 930.166 1304.01 927.686 1305.46 924.566 C 1306.94 921.406 1307.68 917.856 1307.68 913.896 C 1307.68 909.936 1306.94 906.386 1305.46 903.266 C 1304.01 900.146 1301.66 897.696 1298.4 895.926 C 1295.15 894.126 1290.84 893.226 1285.46 893.226 L 1264.4 893.226 L 1264.4 981.506 L 1252.43 981.506 Z" fill="black" style="stroke-width: 1;"/><path d="M -180.57 228.506 L -180.57 129.596 L -120.88 129.596 L -120.88 140.226 L -168.59 140.226 L -168.59 173.646 L -123.97 173.646 L -123.97 184.266 L -168.59 184.266 L -168.59 217.886 L -120.1 217.886 L -120.1 228.506 L -180.57 228.506 Z" fill="black" style="stroke-width: 1;"/><path d="M 1251.43 244.506 L 1251.43 145.596 L 1286.01 145.596 C 1292.9 145.596 1298.58 146.786 1303.06 149.166 C 1307.53 151.526 1310.86 154.696 1313.05 158.686 C 1315.24 162.646 1316.34 167.036 1316.34 171.866 C 1316.34 176.116 1315.58 179.626 1314.07 182.396 C 1312.59 185.166 1310.62 187.356 1308.17 188.966 C 1305.76 190.576 1303.14 191.766 1300.3 192.536 L 1300.3 193.506 C 1303.33 193.696 1306.37 194.766 1309.43 196.696 C 1312.49 198.626 1315.05 201.396 1317.11 204.996 C 1319.17 208.606 1320.2 213.016 1320.2 218.236 C 1320.2 223.196 1319.07 227.646 1316.82 231.616 C 1314.57 235.576 1311.01 238.706 1306.15 241.026 C 1301.28 243.346 1294.96 244.506 1287.17 244.506 L 1251.43 244.506 Z M 1263.4 233.886 L 1287.17 233.886 C 1294.99 233.886 1300.54 232.366 1303.83 229.346 C 1307.14 226.286 1308.8 222.576 1308.8 218.236 C 1308.8 214.886 1307.95 211.796 1306.24 208.956 C 1304.54 206.096 1302.11 203.806 1298.95 202.106 C 1295.79 200.366 1292.06 199.496 1287.75 199.496 L 1263.4 199.496 L 1263.4 233.886 Z M 1263.4 189.066 L 1285.62 189.066 C 1289.23 189.066 1292.48 188.356 1295.38 186.936 C 1298.31 185.526 1300.62 183.526 1302.33 180.946 C 1304.07 178.376 1304.94 175.346 1304.94 171.866 C 1304.94 167.526 1303.43 163.836 1300.4 160.806 C 1297.37 157.756 1292.58 156.226 1286.01 156.226 L 1263.4 156.226 L 1263.4 189.066 Z" fill="black" style="stroke-width: 1;"/><path d="M -130.48 -582.67 C -131.06 -587.57 -133.41 -591.37 -137.53 -594.07 C -141.65 -596.77 -146.71 -598.13 -152.69 -598.13 C -157.07 -598.13 -160.9 -597.42 -164.19 -596 C -167.44 -594.58 -169.98 -592.64 -171.82 -590.16 C -173.62 -587.68 -174.52 -584.86 -174.52 -581.71 C -174.52 -579.07 -173.9 -576.8 -172.64 -574.9 C -171.35 -573.03 -169.71 -571.47 -167.71 -570.21 C -165.72 -568.99 -163.62 -567.97 -161.44 -567.17 C -159.25 -566.4 -157.23 -565.77 -155.4 -565.29 L -145.35 -562.58 C -142.78 -561.9 -139.91 -560.97 -136.76 -559.78 C -133.57 -558.59 -130.53 -556.96 -127.63 -554.9 C -124.7 -552.87 -122.28 -550.27 -120.38 -547.08 C -118.48 -543.89 -117.53 -539.98 -117.53 -535.34 C -117.53 -530 -118.94 -525.17 -121.74 -520.85 C -124.5 -516.54 -128.56 -513.11 -133.91 -510.57 C -139.22 -508.02 -145.68 -506.75 -153.27 -506.75 C -160.36 -506.75 -166.49 -507.89 -171.67 -510.18 C -176.82 -512.47 -180.88 -515.65 -183.84 -519.74 C -186.77 -523.83 -188.43 -528.58 -188.82 -533.99 L -176.46 -533.99 C -176.13 -530.26 -174.88 -527.16 -172.69 -524.72 C -170.47 -522.3 -167.66 -520.5 -164.28 -519.31 C -160.87 -518.15 -157.2 -517.57 -153.27 -517.57 C -148.7 -517.57 -144.6 -518.31 -140.96 -519.79 C -137.32 -521.3 -134.44 -523.4 -132.31 -526.07 C -130.19 -528.77 -129.13 -531.93 -129.13 -535.54 C -129.13 -538.82 -130.04 -541.49 -131.88 -543.55 C -133.71 -545.61 -136.13 -547.29 -139.12 -548.58 C -142.12 -549.86 -145.35 -550.99 -148.83 -551.96 L -161 -555.43 C -168.73 -557.65 -174.84 -560.83 -179.35 -564.95 C -183.86 -569.07 -186.11 -574.46 -186.11 -581.13 C -186.11 -586.66 -184.62 -591.49 -181.62 -595.61 C -178.6 -599.77 -174.54 -602.99 -169.45 -605.27 C -164.33 -607.59 -158.62 -608.75 -152.31 -608.75 C -145.93 -608.75 -140.27 -607.61 -135.31 -605.32 C -130.35 -603.07 -126.42 -599.98 -123.52 -596.05 C -120.59 -592.12 -119.05 -587.66 -118.89 -582.67 L -130.48 -582.67 Z" fill="black" style="stroke-width: 1;"/><path d="M 1252.43 -492.49 L 1252.43 -591.4 L 1285.85 -591.4 C 1293.58 -591.4 1299.92 -590.08 1304.88 -587.44 C 1309.83 -584.83 1313.5 -581.24 1315.89 -576.67 C 1318.27 -572.1 1319.46 -566.9 1319.46 -561.07 C 1319.46 -555.24 1318.27 -550.07 1315.89 -545.57 C 1313.5 -541.06 1309.85 -537.52 1304.92 -534.94 C 1300 -532.4 1293.7 -531.13 1286.04 -531.13 L 1259 -531.13 L 1259 -541.94 L 1285.65 -541.94 C 1290.93 -541.94 1295.18 -542.72 1298.4 -544.26 C 1301.66 -545.81 1304.01 -548 1305.46 -550.83 C 1306.94 -553.7 1307.68 -557.11 1307.68 -561.07 C 1307.68 -565.03 1306.94 -568.49 1305.46 -571.45 C 1303.97 -574.42 1301.61 -576.7 1298.36 -578.31 C 1295.1 -579.95 1290.81 -580.77 1285.46 -580.77 L 1264.4 -580.77 L 1264.4 -492.49 L 1252.43 -492.49 Z M 1298.98 -536.92 L 1323.33 -492.49 L 1309.42 -492.49 L 1285.46 -536.92 L 1298.98 -536.92 Z" fill="black" style="stroke-width: 1;"/><path d="M -194.57 -1245.5 L -194.57 -1344.4 L -182.59 -1344.4 L -182.59 -1300.4 L -129.85 -1300.4 L -129.85 -1344.4 L -117.88 -1344.4 L -117.88 -1245.5 L -129.85 -1245.5 L -129.85 -1289.7 L -182.59 -1289.7 L -182.59 -1245.5 L -194.57 -1245.5 Z" fill="black" style="stroke-width: 1;"/><path d="M 1228.43 -1328.4 L 1242.72 -1328.4 L 1276.34 -1246.3 L 1277.5 -1246.3 L 1311.11 -1328.4 L 1325.4 -1328.4 L 1325.4 -1229.5 L 1314.2 -1229.5 L 1314.2 -1304.6 L 1313.23 -1304.6 L 1282.33 -1229.5 L 1271.51 -1229.5 L 1240.6 -1304.6 L 1239.63 -1304.6 L 1239.63 -1229.5 L 1228.43 -1229.5 L 1228.43 -1328.4 Z" fill="black" style="stroke-width: 1;"/><line x1="563.454" y1="-1509.5" x2="563.454" y2="1939.51" stroke="black" stroke-opacity="0.2" stroke-width="10" stroke-dasharray="20 20" style="stroke-width: 10;"/><line x1="258.454" y1="-1509.5" x2="258.454" y2="1939.51" stroke="black" stroke-opacity="0.2" stroke-width="10" stroke-dasharray="20 20" style="stroke-width: 10;"/><line x1="873.454" y1="-1509.5" x2="873.454" y2="1939.51" stroke="black" stroke-opacity="0.2" stroke-width="10" stroke-dasharray="20 20" style="stroke-width: 10;"/><path d="M 518.128 1968.29 C 376.727 1968.29 35.24 1975.86 35.24 1854.13 C 35.24 1780.55 38.797 773.164 38.361 189.175" stroke="#FFD766" stroke-width="20" style="stroke-width: 20; fill: none;"/><path d="M 1119.14 98.56 C 968.924 98.56 606.166 105.542 606.166 -6.721 C 606.166 -74.581 609.945 -1003.7 609.482 -1542.2" stroke="#FFD766" stroke-width="20" style="stroke-width: 20; fill: none; transform-origin: 862.653px -721.8px;" transform="matrix(-1, 0, 0, -1, -0.000272, -0.000169)"/><path stroke-opacity="0.2" stroke-dasharray="20 20" style="fill: none; stroke: rgb(255, 215, 102); stroke-width: 20px;" d="M 513.252 -1532.8 L 467.512 -1532.4 L 402.916 -1532.4 L 348.676 -1531.9 L 290.249 -1529.9 L 229.228 -1527.4 L 193.688 -1525.3 L 129.172 -1519.5 L 105.284 -1515.8 L 90.122 -1512.4 L 62.527 -1504.5 L 49.414 -1498.7 L 40.73 -1492.3 C 40.795 -1492.3 45.484 -1493.5 36.975 -1488 L 36.24 127.39"/><path stroke-opacity="0.2" stroke-dasharray="20 20" style="fill: none; stroke: rgb(255, 215, 102); stroke-width: 20px; transform-origin: 877.64px 1129.23px;" d="M 1116.14 299.137 L 1070.4 299.537 L 1005.8 299.537 L 951.57 300.037 L 893.14 302.037 L 832.12 304.537 L 796.58 306.637 L 732.072 312.437 L 708.182 316.137 L 693.022 319.537 L 665.422 327.437 L 652.312 333.237 L 643.632 339.637 C 643.692 339.637 648.382 338.437 639.872 343.937 L 639.142 1959.33" transform="matrix(-1, 0, 0, -1, 0.000095, 0.000015)"/><path d="M 1120.61 -1407.8 L 1177.34 -1216.5 L 1063.89 -1216.5 L 1120.61 -1407.8 Z" fill="#FFD766" style="stroke-width: 1;"/></svg>