<?xml version="1.0" encoding="utf-8"?>
<svg xmlns="http://www.w3.org/2000/svg" viewBox="-210.407 -1013.973 1553.299 2493.946" xmlns:bx="https://boxy-svg.com" width="1553.299px" height="2493.946px"><defs><bx:export><bx:file format="svg"/></bx:export></defs><rect x="-48.796" y="-837.43" width="1237" height="2135" fill="white" style="stroke-width: 1;"/><path d="M 544.238 1455.57 L 531.681 1455.57 L 567.999 1356.65 L 580.363 1356.65 L 616.681 1455.57 L 604.124 1455.57 L 574.568 1372.31 L 573.795 1372.31 L 544.238 1455.57 Z M 548.874 1416.92 L 599.488 1416.92 L 599.488 1427.56 L 548.874 1427.56 L 548.874 1416.92 Z" fill="black" style="stroke-width: 1;"/><path d="M 596.772 -960.43 L 584.795 -960.43 C 584.087 -963.88 582.847 -966.91 581.076 -969.51 C 579.338 -972.12 577.213 -974.31 574.701 -976.08 C 572.222 -977.89 569.469 -979.24 566.443 -980.14 C 563.416 -981.04 560.261 -981.49 556.977 -981.49 C 550.988 -981.49 545.563 -979.98 540.701 -976.95 C 535.872 -973.92 532.024 -969.47 529.159 -963.57 C 526.325 -957.68 524.909 -950.45 524.909 -941.89 C 524.909 -933.33 526.325 -926.1 529.159 -920.21 C 532.024 -914.31 535.872 -909.85 540.701 -906.83 C 545.563 -903.8 550.988 -902.29 556.977 -902.29 C 560.261 -902.29 563.416 -902.74 566.443 -903.64 C 569.469 -904.54 572.222 -905.88 574.701 -907.65 C 577.213 -909.45 579.338 -911.66 581.076 -914.26 C 582.847 -916.9 584.087 -919.93 584.795 -923.34 L 596.772 -923.34 C 595.871 -918.29 594.229 -913.76 591.846 -909.77 C 589.463 -905.78 586.501 -902.38 582.96 -899.58 C 579.418 -896.81 575.442 -894.71 571.031 -893.26 C 566.652 -891.81 561.967 -891.08 556.977 -891.08 C 548.541 -891.08 541.039 -893.14 534.471 -897.26 C 527.903 -901.39 522.735 -907.25 518.968 -914.84 C 515.201 -922.44 513.318 -931.46 513.318 -941.89 C 513.318 -952.32 515.201 -961.34 518.968 -968.93 C 522.735 -976.53 527.903 -982.39 534.471 -986.51 C 541.039 -990.64 548.541 -992.7 556.977 -992.7 C 561.967 -992.7 566.652 -991.97 571.031 -990.52 C 575.442 -989.07 579.418 -986.95 582.96 -984.15 C 586.501 -981.38 589.463 -978 591.846 -974.01 C 594.229 -970.05 595.871 -965.52 596.772 -960.43 Z" fill="black" style="stroke-width: 1;"/><path d="M -188.82 996.565 L -188.82 897.655 L -176.84 897.655 L -176.84 946.725 L -175.68 946.725 L -131.25 897.655 L -115.6 897.655 L -157.14 942.285 L -115.6 996.565 L -130.09 996.565 L -164.48 950.585 L -176.84 964.495 L -176.84 996.565 L -188.82 996.565 Z" fill="black" style="stroke-width: 1;"/><path d="M 1257.18 1012.57 L 1257.18 913.655 L 1316.48 913.655 L 1316.48 924.285 L 1269.15 924.285 L 1269.15 957.705 L 1312.04 957.705 L 1312.04 968.325 L 1269.15 968.325 L 1269.15 1012.57 L 1257.18 1012.57 Z" fill="black" style="stroke-width: 1;"/><path d="M -192.82 259.565 L -192.82 160.655 L -133.13 160.655 L -133.13 171.285 L -180.84 171.285 L -180.84 204.705 L -136.22 204.705 L -136.22 215.325 L -180.84 215.325 L -180.84 248.945 L -132.35 248.945 L -132.35 259.565 L -192.82 259.565 Z" fill="black" style="stroke-width: 1;"/><path d="M 1258.18 275.565 L 1258.18 176.655 L 1292.76 176.655 C 1299.65 176.655 1305.33 177.845 1309.81 180.225 C 1314.28 182.585 1317.61 185.755 1319.8 189.745 C 1321.99 193.705 1323.09 198.095 1323.09 202.925 C 1323.09 207.175 1322.33 210.685 1320.82 213.455 C 1319.34 216.225 1317.37 218.415 1314.92 220.025 C 1312.51 221.635 1309.89 222.825 1307.05 223.595 L 1307.05 224.565 C 1310.08 224.755 1313.12 225.825 1316.18 227.755 C 1319.24 229.685 1321.8 232.455 1323.86 236.055 C 1325.92 239.665 1326.95 244.075 1326.95 249.295 C 1326.95 254.255 1325.82 258.705 1323.57 262.675 C 1321.32 266.635 1317.76 269.765 1312.9 272.085 C 1308.03 274.405 1301.71 275.565 1293.92 275.565 L 1258.18 275.565 Z M 1270.15 264.945 L 1293.92 264.945 C 1301.74 264.945 1307.29 263.425 1310.58 260.405 C 1313.89 257.345 1315.55 253.635 1315.55 249.295 C 1315.55 245.945 1314.7 242.855 1312.99 240.015 C 1311.29 237.155 1308.86 234.865 1305.7 233.165 C 1302.54 231.425 1298.81 230.555 1294.5 230.555 L 1270.15 230.555 L 1270.15 264.945 Z M 1270.15 220.125 L 1292.37 220.125 C 1295.98 220.125 1299.23 219.415 1302.13 217.995 C 1305.06 216.585 1307.37 214.585 1309.08 212.005 C 1310.82 209.435 1311.69 206.405 1311.69 202.925 C 1311.69 198.585 1310.18 194.895 1307.15 191.865 C 1304.12 188.815 1299.33 187.285 1292.76 187.285 L 1270.15 187.285 L 1270.15 220.125 Z" fill="black" style="stroke-width: 1;"/><path d="M -202.82 -477.44 L -202.82 -576.34 L -190.84 -576.34 L -190.84 -532.3 L -138.1 -532.3 L -138.1 -576.34 L -126.13 -576.34 L -126.13 -477.44 L -138.1 -477.44 L -138.1 -521.67 L -190.84 -521.67 L -190.84 -477.44 L -202.82 -477.44 Z" fill="black" style="stroke-width: 1;"/><path d="M 1234.18 -560.34 L 1248.47 -560.34 L 1282.09 -478.24 L 1283.25 -478.24 L 1316.86 -560.34 L 1331.15 -560.34 L 1331.15 -461.44 L 1319.95 -461.44 L 1319.95 -536.58 L 1318.98 -536.58 L 1288.08 -461.44 L 1277.26 -461.44 L 1246.35 -536.58 L 1245.38 -536.58 L 1245.38 -461.44 L 1234.18 -461.44 L 1234.18 -560.34 Z" fill="black" style="stroke-width: 1;"/><line x1="570.204" y1="-736.43" x2="570.204" y2="1189.57" stroke="black" stroke-opacity="0.2" stroke-width="10" stroke-dasharray="20 20" style="stroke-width: 10;"/><line x1="872.204" y1="-736.43" x2="872.204" y2="1189.57" stroke="black" stroke-opacity="0.2" stroke-width="10" stroke-dasharray="20 20" style="stroke-width: 10;"/><line x1="267.204" y1="-736.43" x2="267.204" y2="1189.57" stroke="black" stroke-opacity="0.2" stroke-width="10" stroke-dasharray="20 20" style="stroke-width: 10;"/><path d="M 28.891 -592.87 L 85.616 -401.62 L -27.834 -401.62 L 28.891 -592.87 Z" fill="#FFD766" style="stroke-width: 1;"/><path d="M 1090.7 879.791 L 1147.42 1071.04 L 1033.98 1071.04 L 1090.7 879.791 Z" fill="#FFD766" style="stroke-width: 1;"/><path d="M 1092.89 328.208 C 951.493 328.208 610.016 324.328 610.016 386.711 C 610.016 424.419 613.566 940.68 613.136 1239.97" stroke="#FFD766" stroke-width="20" style="stroke-width: 20; fill: none; transform-box: fill-box; transform-origin: 50% 50%;" transform="matrix(-1, 0, 0, -1, -0.000202, -0.000031)"/><path d="M 512.467 -781.9 C 371.07 -781.9 29.59 -785.8 29.59 -723.42 C 29.59 -685.72 33.14 -169.45 32.71 129.83" stroke="#FFD766" stroke-width="20" style="stroke-width: 20; fill: none; transform-origin: 271.03px -326.07px;"/></svg>